<?xml version="1.0" encoding="UTF-8" standalone="no"?>
<!-- Created with Inkscape (http://www.inkscape.org/) -->

<svg
   width="62.504181mm"
   height="62.519863mm"
   viewBox="0 0 62.504181 62.519863"
   version="1.1"
   id="svg1"
   xml:space="preserve"
   sodipodi:docname="playpause.svg"
   inkscape:version="1.3.2 (091e20ef0f, 2023-11-25, custom)"
   xmlns:inkscape="http://www.inkscape.org/namespaces/inkscape"
   xmlns:sodipodi="http://sodipodi.sourceforge.net/DTD/sodipodi-0.dtd"
   xmlns="http://www.w3.org/2000/svg"
   xmlns:svg="http://www.w3.org/2000/svg"><sodipodi:namedview
     id="namedview1"
     pagecolor="#505050"
     bordercolor="#eeeeee"
     borderopacity="1"
     inkscape:showpageshadow="0"
     inkscape:pageopacity="0"
     inkscape:pagecheckerboard="0"
     inkscape:deskcolor="#d1d1d1"
     inkscape:document-units="mm"
     showgrid="false"
     inkscape:zoom="3.3940547"
     inkscape:cx="118.14777"
     inkscape:cy="118.14777"
     inkscape:window-width="1920"
     inkscape:window-height="1023"
     inkscape:window-x="0"
     inkscape:window-y="28"
     inkscape:window-maximized="1"
     inkscape:current-layer="layer1" /><defs
     id="defs1" /><g
     inkscape:label="Layer 1"
     inkscape:groupmode="layer"
     id="layer1"
     transform="translate(-3.8226407,-4.7148869)"><path
       style="fill:#0000ff"
       d="M 32.389336,67.140553 C 18.616656,66.135563 6.8745657,55.539273 4.2375857,41.735883 c -0.55326,-2.89606 -0.55326,-8.647043 0,-11.543106 C 6.6346457,17.645252 16.293936,7.8901126 28.946186,5.2390136 c 3.14402,-0.658787 8.70036,-0.703301 11.88347,-0.0952 13.83212,2.642462 24.37458,14.3428134 25.40106,28.1908804 0.49761,6.713179 -0.94419,13.112259 -4.15992,18.462729 -6.37359,10.60466 -17.28948,16.24737 -29.68146,15.34313 z m 8.11761,-1.69572 c 6.13163,-1.08209 11.46757,-3.9405 15.98241,-8.5616 9.7467,-9.9761 11.34143,-24.963333 3.93495,-36.98037 -1.91782,-3.111664 -6.19307,-7.386909 -9.30473,-9.304728 -9.96388,-6.1410574 -22.15906,-6.1410574 -32.12294,0 -3.11166,1.917819 -7.38691,6.193064 -9.3047203,9.304728 -6.14106,9.963873 -6.14106,22.15906 0,32.12294 1.9251703,3.1236 6.1919403,7.3861 9.3299403,9.32061 6.58376,4.05874 13.85277,5.44535 21.48509,4.09842 z M 18.124776,35.85409 c 0,-6.196766 0.0476,-11.266844 0.1057,-11.266844 0.12043,0 16.84846,10.821374 17.16928,11.106814 0.16189,0.14404 -16.09621,10.952333 -17.0559,11.338673 -0.1205,0.0485 -0.21908,-4.98188 -0.21908,-11.178643 z m 20.6375,-0.0221 V 24.587246 h 2.51354 2.51354 V 35.83204 47.076833 h -2.51354 -2.51354 z m 8.20208,0 V 24.587246 h 2.51354 2.51354 V 35.83204 47.076833 h -2.51354 -2.51354 z"
       id="path1"
       inkscape:export-filename="playpause.svg"
       inkscape:export-xdpi="14.63"
       inkscape:export-ydpi="14.63" /></g></svg>
